<svg width="42" height="40" viewBox="0 0 42 40" fill="none" xmlns="http://www.w3.org/2000/svg">
<g filter="url(#filter0_d_2_28)">
<path d="M34.7734 5.08386H30.3645C30.5345 4.46033 30.5366 3.80295 30.3707 3.17832C30.2048 2.5537 29.8767 1.98403 29.4197 1.52706C28.7196 0.841179 27.7785 0.457032 26.7984 0.457032C25.8183 0.457032 24.8772 0.841179 24.1771 1.52706L21.0001 4.7115L17.8323 1.52706C17.4882 1.18258 17.0796 0.909302 16.6298 0.722851C16.18 0.536399 15.6979 0.44043 15.211 0.44043C14.7241 0.44043 14.242 0.536399 13.7922 0.722851C13.3424 0.909302 12.9338 1.18258 12.5897 1.52706C12.1327 1.98403 11.8046 2.5537 11.6387 3.17832C11.4728 3.80295 11.475 4.46033 11.645 5.08386H7.22675C6.48978 5.08386 5.78299 5.37662 5.26188 5.89773C4.74076 6.41885 4.448 7.12564 4.448 7.86261V9.71511C4.44827 10.2655 4.61342 10.8032 4.92215 11.2589C5.23087 11.7145 5.66902 12.0672 6.18009 12.2716V28.9255C6.18351 30.1528 6.67254 31.3288 7.54033 32.1965C8.40811 33.0643 9.5841 33.5534 10.8113 33.5568H31.1888C32.4171 33.5568 33.5951 33.0688 34.4636 32.2003C35.3321 31.3318 35.8201 30.1538 35.8201 28.9255V12.2901C36.3326 12.0814 36.7717 11.7254 37.0817 11.267C37.3917 10.8086 37.5586 10.2685 37.5614 9.71511V7.86261C37.5614 7.49691 37.4893 7.13482 37.349 6.79708C37.2088 6.45934 37.0033 6.1526 36.7443 5.89445C36.4853 5.6363 36.1779 5.43181 35.8396 5.29271C35.5014 5.15361 35.1391 5.08264 34.7734 5.08386ZM13.8957 2.84048C14.2428 2.49545 14.7124 2.30179 15.2018 2.30179C15.6912 2.30179 16.1607 2.49545 16.5078 2.84048L18.7493 5.08386H13.6179C13.4066 4.73271 13.3192 4.32088 13.3696 3.9142C13.42 3.50752 13.6052 3.12947 13.8957 2.84048ZM19.1476 31.7043H10.8113C10.0744 31.7043 9.36758 31.4115 8.84646 30.8904C8.32535 30.3693 8.03259 29.6625 8.03259 28.9255V12.4939H19.1476V31.7043ZM19.1476 10.6414H7.22675C6.98109 10.6414 6.7455 10.5438 6.57179 10.3701C6.39808 10.1964 6.3005 9.96076 6.3005 9.71511V7.86261C6.3005 7.61695 6.39808 7.38135 6.57179 7.20765C6.7455 7.03394 6.98109 6.93636 7.22675 6.93636H19.1476V10.6414ZM25.5017 2.84048C25.8203 2.52371 26.2432 2.33354 26.6916 2.30538C27.14 2.27721 27.5834 2.41298 27.9392 2.68739C28.2949 2.9618 28.5388 3.35616 28.6255 3.79703C28.7121 4.2379 28.6356 4.69523 28.4101 5.08386H23.2601L25.5017 2.84048ZM33.9676 28.9255C33.9676 29.6625 33.6748 30.3693 33.1537 30.8904C32.6326 31.4115 31.9258 31.7043 31.1888 31.7043H22.8526V12.4939H33.9676V28.9255ZM35.7089 9.71511C35.7089 9.96076 35.6113 10.1964 35.4376 10.3701C35.2639 10.5438 35.0283 10.6414 34.7827 10.6414H22.8526V6.93636H34.7827C35.0283 6.93636 35.2639 7.03394 35.4376 7.20765C35.6113 7.38135 35.7089 7.61695 35.7089 7.86261V9.71511Z" fill="#704174"/>
</g>
<defs>
<filter id="filter0_d_2_28" x="0.447998" y="0.44043" width="41.1135" height="41.1162" filterUnits="userSpaceOnUse" color-interpolation-filters="sRGB">
<feFlood flood-opacity="0" result="BackgroundImageFix"/>
<feColorMatrix in="SourceAlpha" type="matrix" values="0 0 0 0 0 0 0 0 0 0 0 0 0 0 0 0 0 0 127 0" result="hardAlpha"/>
<feOffset dy="4"/>
<feGaussianBlur stdDeviation="2"/>
<feComposite in2="hardAlpha" operator="out"/>
<feColorMatrix type="matrix" values="0 0 0 0 0 0 0 0 0 0 0 0 0 0 0 0 0 0 0.25 0"/>
<feBlend mode="normal" in2="BackgroundImageFix" result="effect1_dropShadow_2_28"/>
<feBlend mode="normal" in="SourceGraphic" in2="effect1_dropShadow_2_28" result="shape"/>
</filter>
</defs>
</svg>
